<?xml version="1.0" standalone="no"?>
<!DOCTYPE svg PUBLIC "-//W3C//DTD SVG 20010904//EN"
 "http://www.w3.org/TR/2001/REC-SVG-20010904/DTD/svg10.dtd">
<svg version="1.0" xmlns="http://www.w3.org/2000/svg"
 width="1600.000000pt" height="1600.000000pt" viewBox="0 0 1600.000000 1600.000000"
 preserveAspectRatio="xMidYMid meet">
<metadata>
Created by potrace 1.14, written by Peter Selinger 2001-2017
</metadata>
<g transform="translate(0.000000,1600.000000) scale(0.100000,-0.100000)"
fill="#000000" stroke="none">
<path d="M4916 14328 c-245 -31 -468 -213 -545 -444 -33 -100 -47 -210 -28
-216 7 -2 157 -3 335 -3 l322 1 0 -834 0 -834 -45 -56 c-53 -67 -217 -230
-295 -292 -30 -25 -57 -47 -60 -50 -5 -5 -17 -14 -130 -91 -309 -211 -699
-368 -1100 -442 -176 -33 -193 -36 -270 -43 -36 -3 -76 -8 -90 -10 -45 -10
-544 -12 -620 -3 -41 5 -104 11 -140 14 -36 3 -76 8 -90 10 -23 4 -83 13 -135
20 -70 9 -137 20 -175 29 -14 3 -43 8 -65 11 -22 3 -58 10 -80 16 -22 6 -51
13 -65 16 -143 24 -404 108 -628 200 -12 5 20 -62 101 -207 124 -224 358 -560
527 -754 322 -373 564 -588 958 -852 67 -45 265 -156 343 -191 l59 -28 -3
-1150 -2 -1150 -120 -60 c-66 -33 -142 -68 -170 -79 -282 -104 -517 -161 -765
-183 -178 -17 -512 -8 -665 16 -33 5 -78 12 -100 16 -22 4 -65 13 -95 20 -30
8 -66 16 -80 19 -27 5 -124 34 -210 61 -88 29 -236 89 -352 143 l-106 50 40
-77 c129 -243 356 -591 499 -766 355 -431 641 -697 1022 -947 l107 -71 0
-1736 0 -1736 5997 0 5998 1 5 1737 5 1737 95 63 c273 180 450 327 694 576
127 129 130 133 191 206 28 33 60 71 72 85 19 22 48 57 71 85 56 69 176 236
241 334 125 188 297 488 287 498 -2 3 -48 -16 -101 -42 -251 -119 -520 -205
-790 -250 -141 -24 -230 -30 -450 -30 -217 0 -347 11 -495 42 -41 8 -88 17
-105 20 -54 9 -268 73 -365 109 -52 19 -151 63 -220 97 l-125 62 -2 1150 -3
1150 102 50 c57 28 149 78 205 111 110 67 362 239 403 276 14 13 48 41 75 62
141 112 325 292 540 530 11 11 147 179 168 206 7 9 25 33 41 55 17 22 32 42
35 45 18 16 215 311 259 388 21 35 44 76 53 90 9 15 39 71 67 124 58 109 62
105 -58 50 -164 -76 -476 -170 -655 -196 -22 -4 -65 -11 -95 -16 -30 -5 -73
-12 -95 -15 -22 -3 -49 -7 -60 -10 -11 -2 -49 -7 -85 -10 -36 -4 -76 -9 -90
-11 -156 -26 -733 -25 -925 1 -16 3 -50 7 -75 9 -505 56 -1068 284 -1445 587
-102 82 -268 247 -323 321 l-42 57 2 833 3 833 320 1 c176 1 325 2 331 3 24 2
-5 171 -45 264 -62 144 -213 293 -357 349 -118 47 -283 64 -384 39 -25 -7 -52
-13 -61 -15 -49 -12 -142 -61 -204 -106 -85 -64 -148 -137 -196 -230 -62 -118
-72 -176 -74 -420 l-1 -215 -2335 -1 -2334 -1 -1 216 c-1 242 -10 294 -69 414
-125 250 -403 400 -679 365z"/>
</g>
</svg>
